<svg width="170" height="37" viewBox="0 0 170 37" fill="none" xmlns="http://www.w3.org/2000/svg"><path d="M135.12 22h32.72a33.561 33.561 0 0 1-.585-1.799 33.25 33.25 0 0 1-.523-2.024h-31.978V12.93h16.895V9.107h-16.895V3.823h32.08A32.099 32.099 0 0 1 168 0h-37.202v22h4.322ZM13.57 15.401a32.46 32.46 0 0 0 8.91-11.298l.098-.206H36.46v18.058h3.957V0h-20.05a27.98 27.98 0 0 1-1.78 3.897h.008l-.308.531a28.982 28.982 0 0 1-7.383 8.404C8.068 15.017 4.746 16.758 1 17.882v3.802c4.854-1.268 9.068-3.457 12.57-6.283ZM82.592 0h-3.957v21.955h3.957V0Zm-4.666.154L77.982 0h-3.814c-1.954 4.78-5.251 9.096-9.674 12.353-4.165 3.068-9.328 5.198-15.306 5.892l-.407.048V.037h-3.958v21.918c1.734 0 3.182-.01 4.62-.118 1.536-.115 3.075-.345 4.961-.8 5.714-1.382 10.57-4.02 14.46-7.473A32.79 32.79 0 0 0 77.925.154ZM104.332 22h4.834V3.81h17.168V0H87.055v3.897h17.277V22ZM3.28 33.12c-.581 0-1.09-.12-1.524-.36A2.552 2.552 0 0 1 .74 31.744c-.24-.44-.36-.953-.36-1.54 0-.427.07-.817.212-1.172a2.78 2.78 0 0 1 .604-.928 2.76 2.76 0 0 1 .924-.608 3.077 3.077 0 0 1 1.168-.216c.427 0 .795.053 1.104.16.312.107.584.259.816.456l-.464.732a1.708 1.708 0 0 0-.616-.364 2.392 2.392 0 0 0-.776-.12c-.312 0-.593.048-.844.144a1.82 1.82 0 0 0-.644.412c-.176.176-.312.39-.408.644a2.43 2.43 0 0 0-.14.852c0 .432.084.801.252 1.108.17.307.41.541.72.704.312.16.68.24 1.104.24.283 0 .555-.041.816-.124.264-.085.51-.223.74-.412l.416.756c-.27.21-.577.372-.924.484-.344.112-.73.168-1.16.168ZM7.61 33v-4.78H6.034v-.82h4.048v.82H8.506V33H7.61Zm3.855.096-.352-.824c.31-.075.588-.185.836-.332.25-.147.479-.341.684-.584.205-.243.395-.543.568-.9l1.492-3.056h1.036l-1.692 3.336a8.108 8.108 0 0 1-.564.96c-.19.27-.387.497-.592.684a2.82 2.82 0 0 1-.66.452 3.371 3.371 0 0 1-.756.264Zm1.612-1.856-2.132-3.84h1.092l1.64 3.048-.6.792ZM20.05 33v-4.78h-2.192v.86c0 .68-.032 1.252-.096 1.716-.064.464-.164.844-.3 1.14a1.729 1.729 0 0 1-.536.684 2.158 2.158 0 0 1-.8.356l-.32-.724a1.59 1.59 0 0 0 .592-.256c.154-.115.274-.285.36-.512.088-.23.149-.537.184-.924.037-.39.056-.883.056-1.48V27.4h3.948V33h-.896Zm-4.244 1.424v-2.172l.616.032.332-.108h5.084v2.248h-.844V33H16.65v1.424h-.844ZM23.024 33v-5.6h.892v4.136l2.8-4.136h.864V33h-.888v-4.164L23.88 33h-.856Zm5.824 0 1.708-2.368c-.454-.08-.807-.255-1.06-.524-.251-.27-.376-.621-.376-1.056 0-.336.08-.627.244-.872.162-.248.392-.44.688-.576.296-.136.646-.204 1.052-.204h2.036V33h-.896v-2.26h-.76L29.896 33h-1.048Zm2.264-3.004h1.132V28.16h-1.076c-.358 0-.638.077-.84.232-.203.152-.304.373-.304.664 0 .296.09.527.272.692.18.165.453.248.816.248ZM36.389 33l2.176-5.6h.972l2.232 5.6h-1.012l-.516-1.336h-2.372L37.373 33h-.984Zm1.712-2.108h1.9l-.968-2.44-.932 2.44ZM42.82 33v-5.6h4.504V33h-.896v-4.78h-2.712V33h-.896Zm6.2 0v-5.6h4.505V33h-.896v-4.78h-2.712V33h-.896Zm5.558 0 2.176-5.6h.972l2.232 5.6h-1.012l-.516-1.336h-2.372L55.562 33h-.984Zm1.712-2.108h1.9l-.968-2.44-.932 2.44ZM61.009 33v-5.6h2.028c.397 0 .748.07 1.052.208.306.136.546.333.72.592.173.256.26.564.26.924 0 .37-.08.684-.24.94-.16.253-.394.447-.7.58-.304.13-.675.196-1.112.196h-1.112V33h-.896Zm.896-2.928h1.124c.362 0 .644-.076.844-.228.2-.155.3-.388.3-.7 0-.31-.103-.547-.308-.712-.206-.165-.482-.248-.828-.248h-1.132v1.888ZM65.433 33l2.176-5.6h.972l2.232 5.6H69.8l-.516-1.336h-2.372L66.417 33h-.984Zm1.712-2.108h1.9l-.968-2.44-.932 2.44ZM72.568 33v-4.78h-1.576v-.82h4.048v.82h-1.576V33h-.896Zm3.653 0v-5.6h.896v2.224h2.712V27.4h.896V33h-.896v-2.552h-2.712V33h-.896Zm8.8.12a3.07 3.07 0 0 1-1.171-.22 2.912 2.912 0 0 1-.936-.62 2.877 2.877 0 0 1-.62-.928 2.986 2.986 0 0 1-.22-1.152c0-.416.073-.801.22-1.156.15-.355.356-.664.62-.928a2.86 2.86 0 0 1 .936-.616c.36-.147.75-.22 1.172-.22a3 3 0 0 1 1.164.224 2.853 2.853 0 0 1 1.556 1.556c.15.352.224.732.224 1.14 0 .413-.075.797-.224 1.152a2.791 2.791 0 0 1-.62.928 2.91 2.91 0 0 1-2.1.84Zm0-.848c.283 0 .546-.048.789-.144.245-.099.458-.239.64-.42.181-.184.322-.403.424-.656.104-.256.156-.54.156-.852 0-.419-.09-.783-.268-1.092a1.86 1.86 0 0 0-.72-.724 2.047 2.047 0 0 0-1.02-.256c-.283 0-.547.05-.792.148a1.897 1.897 0 0 0-.64.416c-.182.181-.324.4-.428.656a2.277 2.277 0 0 0-.152.852c0 .419.09.784.268 1.096.178.31.418.55.72.72.304.17.645.256 1.024.256Zm4.29.728v-5.6h.891v4.136l2.8-4.136h.864V33h-.888v-4.164L90.166 33h-.856Zm2.28-6.28a1.59 1.59 0 0 1-.78-.184 1.307 1.307 0 0 1-.52-.508 1.396 1.396 0 0 1-.173-.744h.736c-.01.245.05.444.184.596.136.15.32.224.552.224.232 0 .415-.075.548-.224.133-.152.194-.35.18-.596h.74a1.4 1.4 0 0 1-.18.74 1.333 1.333 0 0 1-.52.512 1.558 1.558 0 0 1-.768.184Zm9.644 6.28-2.292-2.956 2.036-2.644h1.104l-2.048 2.64 2.356 2.96h-1.156Zm-3.468 0v-5.6h.896v2.224h1.04v.824h-1.04V33h-.896Zm8.004.12c-.422 0-.812-.073-1.172-.22a2.897 2.897 0 0 1-.936-.62 2.87 2.87 0 0 1-.84-2.08 2.87 2.87 0 0 1 .84-2.084c.266-.264.578-.47.936-.616.36-.147.75-.22 1.172-.22a3 3 0 0 1 1.164.224 2.853 2.853 0 0 1 1.556 1.556c.149.352.224.732.224 1.14 0 .413-.075.797-.224 1.152a2.808 2.808 0 0 1-.62.928 2.93 2.93 0 0 1-.936.62 3.04 3.04 0 0 1-1.164.22Zm0-.848c.282 0 .545-.048.788-.144.245-.099.458-.239.64-.42.181-.184.322-.403.424-.656.104-.256.156-.54.156-.852 0-.419-.09-.783-.268-1.092a1.86 1.86 0 0 0-.72-.724 2.047 2.047 0 0 0-1.02-.256 2.1 2.1 0 0 0-.792.148 1.893 1.893 0 0 0-.64.416c-.182.181-.324.4-.428.656a2.263 2.263 0 0 0-.152.852c0 .419.089.784.268 1.096.178.31.418.55.72.72.304.17.645.256 1.024.256Zm6.918.848c-.581 0-1.089-.12-1.524-.36a2.558 2.558 0 0 1-1.016-1.016c-.24-.44-.36-.953-.36-1.54 0-.427.071-.817.212-1.172a2.79 2.79 0 0 1 .604-.928c.262-.261.57-.464.924-.608a3.078 3.078 0 0 1 1.168-.216c.427 0 .795.053 1.104.16.312.107.584.259.816.456l-.464.732a1.705 1.705 0 0 0-.616-.364 2.388 2.388 0 0 0-.776-.12c-.312 0-.593.048-.844.144a1.82 1.82 0 0 0-.644.412c-.176.176-.312.39-.408.644-.093.25-.14.535-.14.852 0 .432.084.801.252 1.108.171.307.411.541.72.704.312.16.68.24 1.104.24.283 0 .555-.041.816-.124.264-.085.511-.223.74-.412l.416.756a2.97 2.97 0 0 1-.924.484c-.344.112-.73.168-1.16.168Zm3.267-.12v-5.6h.868l2.284 3.716-.348.004 2.2-3.72h.852V33h-.876l.012-4.408.172.06-1.904 3.14h-.656l-1.94-3.14.144-.06.012 4.408h-.82Zm7.552 0v-5.6h3.62v.792h-2.724v1.512h2.352v.748h-2.352V32.2h2.748v.8h-3.644Zm6.202 0v-4.78h-1.576v-.82h4.048v.82h-1.576V33h-.896Zm5.995.12c-.421 0-.812-.073-1.172-.22a2.918 2.918 0 0 1-.936-.62 2.887 2.887 0 0 1-.62-.928 2.997 2.997 0 0 1-.22-1.152c0-.416.074-.801.22-1.156.15-.355.356-.664.62-.928.267-.264.579-.47.936-.616.36-.147.751-.22 1.172-.22.419 0 .807.075 1.164.224a2.864 2.864 0 0 1 1.556 1.556c.15.352.224.732.224 1.14 0 .413-.074.797-.224 1.152a2.778 2.778 0 0 1-.62.928 2.908 2.908 0 0 1-2.1.84Zm0-.848c.283 0 .546-.048.788-.144.246-.099.459-.239.64-.42.182-.184.323-.403.424-.656.104-.256.156-.54.156-.852 0-.419-.089-.783-.268-1.092a1.86 1.86 0 0 0-.72-.724 2.047 2.047 0 0 0-1.02-.256c-.282 0-.546.05-.792.148a1.903 1.903 0 0 0-.64.416c-.181.181-.324.4-.428.656a2.283 2.283 0 0 0-.152.852c0 .419.09.784.268 1.096.179.31.419.55.72.72.304.17.646.256 1.024.256Zm3.979.824-.336-.824c.179-.056.332-.124.46-.204.128-.08.235-.188.32-.324.088-.139.156-.319.204-.54.051-.224.087-.505.108-.844.022-.341.032-.757.032-1.248V27.4h3.916V33h-.896v-4.78h-2.16v.86c0 .581-.017 1.083-.052 1.504a5.854 5.854 0 0 1-.172 1.064 2.36 2.36 0 0 1-.308.716 1.505 1.505 0 0 1-.468.452c-.184.115-.4.208-.648.28Zm9.001.024c-.421 0-.812-.073-1.172-.22a2.918 2.918 0 0 1-.936-.62 2.887 2.887 0 0 1-.62-.928 2.997 2.997 0 0 1-.22-1.152c0-.416.074-.801.22-1.156.15-.355.356-.664.62-.928.267-.264.579-.47.936-.616.36-.147.751-.22 1.172-.22.419 0 .807.075 1.164.224a2.864 2.864 0 0 1 1.556 1.556c.15.352.224.732.224 1.14 0 .413-.074.797-.224 1.152a2.778 2.778 0 0 1-.62.928 2.908 2.908 0 0 1-2.1.84Zm0-.848c.283 0 .546-.048.788-.144.246-.099.459-.239.64-.42.182-.184.323-.403.424-.656.104-.256.156-.54.156-.852 0-.419-.089-.783-.268-1.092a1.86 1.86 0 0 0-.72-.724 2.047 2.047 0 0 0-1.02-.256c-.282 0-.546.05-.792.148a1.903 1.903 0 0 0-.64.416c-.181.181-.324.4-.428.656a2.283 2.283 0 0 0-.152.852c0 .419.09.784.268 1.096.179.31.419.55.72.72.304.17.646.256 1.024.256Zm4.289.728v-5.6h3.172v.82h-2.276V33h-.896Zm4.357 0v-5.6h.892v4.136l2.8-4.136h.864V33h-.888v-4.164L158.187 33h-.856Zm6.255 0v-5.6h.892v4.136l2.8-4.136h.864V33h-.888v-4.164L164.442 33h-.856Z" fill="#2B2922"/></svg>