<svg width="145" height="19" viewBox="0 0 145 19" fill="none" xmlns="http://www.w3.org/2000/svg"><path d="M116.451 19h28.41a28.748 28.748 0 0 1-.508-1.553 28.818 28.818 0 0 1-.454-1.749h-27.765v-4.53h14.669V7.864h-14.669V3.302h27.853A27.586 27.586 0 0 1 145 0h-32.302v19h3.753ZM10.914 13.3a28.056 28.056 0 0 0 7.735-9.756l.085-.178h12.054V18.96h3.436V0H16.815a24.062 24.062 0 0 1-1.546 3.366h.007l-.267.459a25.07 25.07 0 0 1-6.41 7.257C6.136 12.969 3.252 14.472 0 15.444v3.283c4.215-1.095 7.873-2.985 10.914-5.426ZM70.844 0h-3.437v18.961h3.436V0Zm-4.052.133L66.841 0h-3.312c-1.697 4.128-4.56 7.856-8.4 10.669-3.616 2.65-8.099 4.489-13.29 5.088l-.353.042V.032H38.05v18.93c1.506-.001 2.763-.009 4.01-.102 1.335-.1 2.671-.299 4.309-.692 4.962-1.194 9.177-3.472 12.554-6.454a28.313 28.313 0 0 0 7.87-11.58ZM89.72 19h4.197V3.291h14.907V0H74.719v3.366h15V19Z" fill="#2B2922"/></svg>