<svg width="170" height="37" viewBox="0 0 170 37" fill="none" xmlns="http://www.w3.org/2000/svg">
<path d="M135.12 22H167.84C167.625 21.398 167.431 20.7982 167.255 20.2012C167.059 19.5311 166.885 18.8558 166.732 18.1769H134.754V12.9303H151.649V9.10696H134.754V3.82314H166.834C166.998 3.13268 167.184 2.4532 167.391 1.78676C167.577 1.18369 167.78 0.588097 168 0H130.798V22H135.12ZM13.5704 15.4011C17.4329 12.2844 20.4333 8.39163 22.4788 4.1033L22.577 3.89734H36.4594V21.9549H40.4165V0H20.3663C20.1009 0.723195 19.8059 1.43473 19.4822 2.13268C19.207 2.726 18.9079 3.31464 18.586 3.89734H18.594L18.2861 4.4285C16.444 7.60488 13.9571 10.4764 10.9027 12.8318C8.06776 15.0174 4.74616 16.7576 1 17.8825V21.684C5.85443 20.4159 10.0676 18.2275 13.5704 15.4011ZM82.5918 0H78.6345V21.9549H82.5918V0ZM77.9261 0.154272L77.9818 0H74.1684C72.214 4.78033 68.9167 9.09601 64.4941 12.3532C60.3288 15.4209 55.1658 17.5508 49.1879 18.2454L48.7805 18.293V0.0372674H44.8232V21.9549C46.557 21.9544 48.0054 21.9457 49.4424 21.8374C50.979 21.7218 52.5182 21.492 54.4043 21.0364C60.1185 19.6546 64.974 17.0165 68.8633 13.5637C73.0432 9.85227 76.1087 5.19993 77.9261 0.154272ZM104.332 22H109.166V3.8108H126.334V0H87.0554V3.89734H104.332V22Z" fill="#2B2922"/>
<path d="M3.28 33.12C2.69867 33.12 2.19067 33 1.756 32.76C1.32133 32.52 0.982667 32.1813 0.74 31.744C0.5 31.304 0.38 30.7907 0.38 30.204C0.38 29.7773 0.450667 29.3867 0.592 29.032C0.736 28.6747 0.937333 28.3653 1.196 28.104C1.45733 27.8427 1.76533 27.64 2.12 27.496C2.47467 27.352 2.864 27.28 3.288 27.28C3.71467 27.28 4.08267 27.3333 4.392 27.44C4.704 27.5467 4.976 27.6987 5.208 27.896L4.744 28.628C4.568 28.4653 4.36267 28.344 4.128 28.264C3.89333 28.184 3.63467 28.144 3.352 28.144C3.04 28.144 2.75867 28.192 2.508 28.288C2.25733 28.384 2.04267 28.5213 1.864 28.7C1.688 28.876 1.552 29.0907 1.456 29.344C1.36267 29.5947 1.316 29.8787 1.316 30.196C1.316 30.628 1.4 30.9973 1.568 31.304C1.73867 31.6107 1.97867 31.8453 2.288 32.008C2.6 32.168 2.968 32.248 3.392 32.248C3.67467 32.248 3.94667 32.2067 4.208 32.124C4.472 32.0387 4.71867 31.9013 4.948 31.712L5.364 32.468C5.09467 32.6787 4.78667 32.84 4.44 32.952C4.096 33.064 3.70933 33.12 3.28 33.12ZM7.61012 33V28.22H6.03412V27.4H10.0821V28.22H8.50612V33H7.61012ZM11.4648 33.096L11.1128 32.272C11.4221 32.1973 11.7008 32.0867 11.9488 31.94C12.1995 31.7933 12.4275 31.5987 12.6328 31.356C12.8381 31.1133 13.0275 30.8133 13.2008 30.456L14.6928 27.4H15.7288L14.0368 30.736C13.8501 31.104 13.6621 31.424 13.4728 31.696C13.2835 31.9653 13.0861 32.1933 12.8808 32.38C12.6755 32.5667 12.4555 32.7173 12.2208 32.832C11.9888 32.9467 11.7368 33.0347 11.4648 33.096ZM13.0768 31.24L10.9448 27.4H12.0368L13.6768 30.448L13.0768 31.24ZM20.0497 33V28.22H17.8577V29.08C17.8577 29.76 17.8257 30.332 17.7617 30.796C17.6977 31.26 17.5977 31.64 17.4617 31.936C17.3257 32.2293 17.147 32.4573 16.9257 32.62C16.707 32.7827 16.4404 32.9013 16.1257 32.976L15.8057 32.252C16.0457 32.196 16.243 32.1107 16.3977 31.996C16.5524 31.8813 16.6724 31.7107 16.7577 31.484C16.8457 31.2547 16.907 30.9467 16.9417 30.56C16.979 30.1707 16.9977 29.6773 16.9977 29.08V27.4H20.9457V33H20.0497ZM15.8057 34.424V32.252L16.4217 32.284L16.7537 32.176H21.8377V34.424H20.9937V33H16.6497V34.424H15.8057ZM23.0239 33V27.4H23.9159V31.536L26.7159 27.4H27.5799V33H26.6919V28.836L23.8799 33H23.0239ZM28.8476 33L30.5556 30.632C30.1022 30.552 29.7489 30.3773 29.4956 30.108C29.2449 29.8387 29.1196 29.4867 29.1196 29.052C29.1196 28.716 29.2009 28.4253 29.3636 28.18C29.5262 27.932 29.7556 27.74 30.0516 27.604C30.3476 27.468 30.6982 27.4 31.1036 27.4H33.1396V33H32.2436V30.74H31.4836L29.8956 33H28.8476ZM31.1116 29.996H32.2436V28.16H31.1676C30.8102 28.16 30.5302 28.2373 30.3276 28.392C30.1249 28.544 30.0236 28.7653 30.0236 29.056C30.0236 29.352 30.1142 29.5827 30.2956 29.748C30.4769 29.9133 30.7489 29.996 31.1116 29.996ZM36.389 33L38.565 27.4H39.537L41.769 33H40.757L40.241 31.664H37.869L37.373 33H36.389ZM38.101 30.892H40.001L39.033 28.452L38.101 30.892ZM42.8199 33V27.4H47.3239V33H46.4279V28.22H43.7159V33H42.8199ZM49.0208 33V27.4H53.5248V33H52.6288V28.22H49.9168V33H49.0208ZM54.5778 33L56.7538 27.4H57.7258L59.9578 33H58.9458L58.4298 31.664H56.0578L55.5618 33H54.5778ZM56.2898 30.892H58.1898L57.2218 28.452L56.2898 30.892ZM61.0086 33V27.4H63.0366C63.434 27.4 63.7846 27.4693 64.0886 27.608C64.3953 27.744 64.6353 27.9413 64.8086 28.2C64.982 28.456 65.0686 28.764 65.0686 29.124C65.0686 29.4947 64.9886 29.808 64.8286 30.064C64.6686 30.3173 64.4353 30.5107 64.1286 30.644C63.8246 30.7747 63.454 30.84 63.0166 30.84H61.9046V33H61.0086ZM61.9046 30.072H63.0286C63.3913 30.072 63.6726 29.996 63.8726 29.844C64.0726 29.6893 64.1726 29.456 64.1726 29.144C64.1726 28.8347 64.07 28.5973 63.8646 28.432C63.6593 28.2667 63.3833 28.184 63.0366 28.184H61.9046V30.072ZM65.4327 33L67.6087 27.4H68.5807L70.8127 33H69.8007L69.2847 31.664H66.9127L66.4167 33H65.4327ZM67.1447 30.892H69.0447L68.0767 28.452L67.1447 30.892ZM72.5683 33V28.22H70.9923V27.4H75.0403V28.22H73.4643V33H72.5683ZM76.2208 33V27.4H77.1168V29.624H79.8288V27.4H80.7248V33H79.8288V30.448H77.1168V33H76.2208ZM85.0217 33.12C84.6004 33.12 84.2097 33.0467 83.8497 32.9C83.4924 32.7507 83.1804 32.544 82.9137 32.28C82.6497 32.016 82.4431 31.7067 82.2937 31.352C82.1471 30.9973 82.0737 30.6133 82.0737 30.2C82.0737 29.784 82.1471 29.3987 82.2937 29.044C82.4431 28.6893 82.6497 28.38 82.9137 28.116C83.1804 27.852 83.4924 27.6467 83.8497 27.5C84.2097 27.3533 84.6004 27.28 85.0217 27.28C85.4404 27.28 85.8284 27.3547 86.1857 27.504C86.5431 27.6533 86.8551 27.8613 87.1217 28.128C87.3884 28.3947 87.5951 28.7053 87.7417 29.06C87.8911 29.412 87.9657 29.792 87.9657 30.2C87.9657 30.6133 87.8911 30.9973 87.7417 31.352C87.5951 31.7067 87.3884 32.016 87.1217 32.28C86.8551 32.544 86.5431 32.7507 86.1857 32.9C85.8284 33.0467 85.4404 33.12 85.0217 33.12ZM85.0217 32.272C85.3044 32.272 85.5671 32.224 85.8097 32.128C86.0551 32.0293 86.2684 31.8893 86.4497 31.708C86.6311 31.524 86.7724 31.3053 86.8737 31.052C86.9777 30.796 87.0297 30.512 87.0297 30.2C87.0297 29.7813 86.9404 29.4173 86.7617 29.108C86.5857 28.796 86.3457 28.5547 86.0417 28.384C85.7377 28.2133 85.3977 28.128 85.0217 28.128C84.7391 28.128 84.4751 28.1773 84.2297 28.276C83.9871 28.372 83.7737 28.5107 83.5897 28.692C83.4084 28.8733 83.2657 29.092 83.1617 29.348C83.0604 29.6013 83.0097 29.8853 83.0097 30.2C83.0097 30.6187 83.0991 30.984 83.2777 31.296C83.4564 31.6053 83.6964 31.8453 83.9977 32.016C84.3017 32.1867 84.6431 32.272 85.0217 32.272ZM89.3102 33V27.4H90.2022V31.536L93.0022 27.4H93.8662V33H92.9782V28.836L90.1662 33H89.3102ZM91.5902 26.72C91.2942 26.72 91.0342 26.6587 90.8102 26.536C90.5862 26.4133 90.4129 26.244 90.2902 26.028C90.1675 25.812 90.1102 25.564 90.1182 25.284H90.8542C90.8435 25.5293 90.9049 25.728 91.0382 25.88C91.1742 26.0293 91.3582 26.104 91.5902 26.104C91.8222 26.104 92.0049 26.0293 92.1382 25.88C92.2715 25.728 92.3315 25.5293 92.3182 25.284H93.0582C93.0635 25.5613 93.0035 25.808 92.8782 26.024C92.7555 26.24 92.5822 26.4107 92.3582 26.536C92.1369 26.6587 91.8809 26.72 91.5902 26.72ZM101.235 33L98.9427 30.044L100.979 27.4H102.083L100.035 30.04L102.391 33H101.235ZM97.7667 33V27.4H98.6627V29.624H99.7027V30.448H98.6627V33H97.7667ZM105.771 33.12C105.349 33.12 104.959 33.0467 104.599 32.9C104.241 32.7507 103.929 32.544 103.663 32.28C103.399 32.016 103.192 31.7067 103.043 31.352C102.896 30.9973 102.823 30.6133 102.823 30.2C102.823 29.784 102.896 29.3987 103.043 29.044C103.192 28.6893 103.399 28.38 103.663 28.116C103.929 27.852 104.241 27.6467 104.599 27.5C104.959 27.3533 105.349 27.28 105.771 27.28C106.189 27.28 106.577 27.3547 106.935 27.504C107.292 27.6533 107.604 27.8613 107.871 28.128C108.137 28.3947 108.344 28.7053 108.491 29.06C108.64 29.412 108.715 29.792 108.715 30.2C108.715 30.6133 108.64 30.9973 108.491 31.352C108.344 31.7067 108.137 32.016 107.871 32.28C107.604 32.544 107.292 32.7507 106.935 32.9C106.577 33.0467 106.189 33.12 105.771 33.12ZM105.771 32.272C106.053 32.272 106.316 32.224 106.559 32.128C106.804 32.0293 107.017 31.8893 107.199 31.708C107.38 31.524 107.521 31.3053 107.623 31.052C107.727 30.796 107.779 30.512 107.779 30.2C107.779 29.7813 107.689 29.4173 107.511 29.108C107.335 28.796 107.095 28.5547 106.791 28.384C106.487 28.2133 106.147 28.128 105.771 28.128C105.488 28.128 105.224 28.1773 104.979 28.276C104.736 28.372 104.523 28.5107 104.339 28.692C104.157 28.8733 104.015 29.092 103.911 29.348C103.809 29.6013 103.759 29.8853 103.759 30.2C103.759 30.6187 103.848 30.984 104.027 31.296C104.205 31.6053 104.445 31.8453 104.747 32.016C105.051 32.1867 105.392 32.272 105.771 32.272ZM112.689 33.12C112.108 33.12 111.6 33 111.165 32.76C110.731 32.52 110.392 32.1813 110.149 31.744C109.909 31.304 109.789 30.7907 109.789 30.204C109.789 29.7773 109.86 29.3867 110.001 29.032C110.145 28.6747 110.347 28.3653 110.605 28.104C110.867 27.8427 111.175 27.64 111.529 27.496C111.884 27.352 112.273 27.28 112.697 27.28C113.124 27.28 113.492 27.3333 113.801 27.44C114.113 27.5467 114.385 27.6987 114.617 27.896L114.153 28.628C113.977 28.4653 113.772 28.344 113.537 28.264C113.303 28.184 113.044 28.144 112.761 28.144C112.449 28.144 112.168 28.192 111.917 28.288C111.667 28.384 111.452 28.5213 111.273 28.7C111.097 28.876 110.961 29.0907 110.865 29.344C110.772 29.5947 110.725 29.8787 110.725 30.196C110.725 30.628 110.809 30.9973 110.977 31.304C111.148 31.6107 111.388 31.8453 111.697 32.008C112.009 32.168 112.377 32.248 112.801 32.248C113.084 32.248 113.356 32.2067 113.617 32.124C113.881 32.0387 114.128 31.9013 114.357 31.712L114.773 32.468C114.504 32.6787 114.196 32.84 113.849 32.952C113.505 33.064 113.119 33.12 112.689 33.12ZM115.956 33V27.4H116.824L119.108 31.116L118.76 31.12L120.96 27.4H121.812V33H120.936L120.948 28.592L121.12 28.652L119.216 31.792H118.56L116.62 28.652L116.764 28.592L116.776 33H115.956ZM123.508 33V27.4H127.128V28.192H124.404V29.704H126.756V30.452H124.404V32.2H127.152V33H123.508ZM129.71 33V28.22H128.134V27.4H132.182V28.22H130.606V33H129.71ZM135.705 33.12C135.284 33.12 134.893 33.0467 134.533 32.9C134.176 32.7507 133.864 32.544 133.597 32.28C133.333 32.016 133.127 31.7067 132.977 31.352C132.831 30.9973 132.757 30.6133 132.757 30.2C132.757 29.784 132.831 29.3987 132.977 29.044C133.127 28.6893 133.333 28.38 133.597 28.116C133.864 27.852 134.176 27.6467 134.533 27.5C134.893 27.3533 135.284 27.28 135.705 27.28C136.124 27.28 136.512 27.3547 136.869 27.504C137.227 27.6533 137.539 27.8613 137.805 28.128C138.072 28.3947 138.279 28.7053 138.425 29.06C138.575 29.412 138.649 29.792 138.649 30.2C138.649 30.6133 138.575 30.9973 138.425 31.352C138.279 31.7067 138.072 32.016 137.805 32.28C137.539 32.544 137.227 32.7507 136.869 32.9C136.512 33.0467 136.124 33.12 135.705 33.12ZM135.705 32.272C135.988 32.272 136.251 32.224 136.493 32.128C136.739 32.0293 136.952 31.8893 137.133 31.708C137.315 31.524 137.456 31.3053 137.557 31.052C137.661 30.796 137.713 30.512 137.713 30.2C137.713 29.7813 137.624 29.4173 137.445 29.108C137.269 28.796 137.029 28.5547 136.725 28.384C136.421 28.2133 136.081 28.128 135.705 28.128C135.423 28.128 135.159 28.1773 134.913 28.276C134.671 28.372 134.457 28.5107 134.273 28.692C134.092 28.8733 133.949 29.092 133.845 29.348C133.744 29.6013 133.693 29.8853 133.693 30.2C133.693 30.6187 133.783 30.984 133.961 31.296C134.14 31.6053 134.38 31.8453 134.681 32.016C134.985 32.1867 135.327 32.272 135.705 32.272ZM139.684 33.096L139.348 32.272C139.527 32.216 139.68 32.148 139.808 32.068C139.936 31.988 140.043 31.88 140.128 31.744C140.216 31.6053 140.284 31.4253 140.332 31.204C140.383 30.98 140.419 30.6987 140.44 30.36C140.462 30.0187 140.472 29.6027 140.472 29.112V27.4H144.388V33H143.492V28.22H141.332V29.08C141.332 29.6613 141.315 30.1627 141.28 30.584C141.246 31.0027 141.188 31.3573 141.108 31.648C141.031 31.936 140.928 32.1747 140.8 32.364C140.675 32.5507 140.519 32.7013 140.332 32.816C140.148 32.9307 139.932 33.024 139.684 33.096ZM148.685 33.12C148.264 33.12 147.873 33.0467 147.513 32.9C147.156 32.7507 146.844 32.544 146.577 32.28C146.313 32.016 146.107 31.7067 145.957 31.352C145.811 30.9973 145.737 30.6133 145.737 30.2C145.737 29.784 145.811 29.3987 145.957 29.044C146.107 28.6893 146.313 28.38 146.577 28.116C146.844 27.852 147.156 27.6467 147.513 27.5C147.873 27.3533 148.264 27.28 148.685 27.28C149.104 27.28 149.492 27.3547 149.849 27.504C150.207 27.6533 150.519 27.8613 150.785 28.128C151.052 28.3947 151.259 28.7053 151.405 29.06C151.555 29.412 151.629 29.792 151.629 30.2C151.629 30.6133 151.555 30.9973 151.405 31.352C151.259 31.7067 151.052 32.016 150.785 32.28C150.519 32.544 150.207 32.7507 149.849 32.9C149.492 33.0467 149.104 33.12 148.685 33.12ZM148.685 32.272C148.968 32.272 149.231 32.224 149.473 32.128C149.719 32.0293 149.932 31.8893 150.113 31.708C150.295 31.524 150.436 31.3053 150.537 31.052C150.641 30.796 150.693 30.512 150.693 30.2C150.693 29.7813 150.604 29.4173 150.425 29.108C150.249 28.796 150.009 28.5547 149.705 28.384C149.401 28.2133 149.061 28.128 148.685 28.128C148.403 28.128 148.139 28.1773 147.893 28.276C147.651 28.372 147.437 28.5107 147.253 28.692C147.072 28.8733 146.929 29.092 146.825 29.348C146.724 29.6013 146.673 29.8853 146.673 30.2C146.673 30.6187 146.763 30.984 146.941 31.296C147.12 31.6053 147.36 31.8453 147.661 32.016C147.965 32.1867 148.307 32.272 148.685 32.272ZM152.974 33V27.4H156.146V28.22H153.87V33H152.974ZM157.331 33V27.4H158.223V31.536L161.023 27.4H161.887V33H160.999V28.836L158.187 33H157.331ZM163.586 33V27.4H164.478V31.536L167.278 27.4H168.142V33H167.254V28.836L164.442 33H163.586Z" fill="#2B2922"/>
</svg>
