<svg width="145" height="19" viewBox="0 0 145 19" fill="none" xmlns="http://www.w3.org/2000/svg">
  <path d="M116.451 19H144.861C144.674 18.4801 144.506 17.9621 144.353 17.4465C144.183 16.8678 144.032 16.2846 143.899 15.6982H116.134V11.1671H130.803V7.8651H116.134V3.30181H143.987C144.13 2.70549 144.292 2.11868 144.471 1.54311C144.633 1.02228 144.809 0.507902 145 0H112.698V19H116.451ZM10.9144 13.3009C14.2681 10.6093 16.8732 7.24732 18.6493 3.54376L18.7345 3.36588H30.7881V18.9611H34.2239V0H16.8151C16.5847 0.624578 16.3285 1.23908 16.0474 1.84186C15.8085 2.35427 15.5488 2.86264 15.2692 3.36588H15.2762L15.0089 3.82461C13.4095 6.56785 11.2502 9.04782 8.59813 11.082C6.13668 12.9695 3.25266 14.4725 0 15.4439V18.7271C4.21492 17.6319 7.8731 15.742 10.9144 13.3009ZM70.8431 0H67.4072V18.9611H70.8431V0ZM66.7922 0.133235L66.8405 0H63.5294C61.8325 4.12847 58.9696 7.85564 55.1296 10.6686C51.513 13.3181 47.0302 15.1575 41.8398 15.7574L41.486 15.7985V0.0321855H38.0501V18.9611C39.5555 18.9606 40.8131 18.9531 42.0608 18.8596C43.3949 18.7597 44.7314 18.5613 46.369 18.1678C51.3305 16.9744 55.5463 14.6961 58.9233 11.7141C62.5525 8.50878 65.2141 4.49084 66.7922 0.133235ZM89.7193 19H93.9162V3.29115H108.823V0H74.7187V3.36588H89.7193V19Z" fill="#2B2922" />
</svg>
