<svg width="260" height="54" viewBox="0 0 260 54" fill="none" xmlns="http://www.w3.org/2000/svg">
  <path d="M208.997 33.5793H259.751C259.418 32.6604 259.116 31.745 258.844 30.8338C258.54 29.811 258.269 28.7803 258.033 27.7439H208.431V19.7359H234.637V13.9002H208.431V5.83539H258.19C258.446 4.78151 258.734 3.7444 259.055 2.72719C259.343 1.80671 259.659 0.897631 259.999 0H202.293V33.5793H208.997ZM20.4574 23.5072C26.4487 18.7501 31.1027 12.8084 34.2756 6.26299L34.4279 5.94863H55.9615V33.5105H62.0995V0H30.9989C30.5872 1.10384 30.1296 2.18987 29.6275 3.25517C29.2006 4.16078 28.7367 5.05924 28.2373 5.94863H28.2497L27.7722 6.75936C24.9148 11.6076 21.0573 15.9905 16.3194 19.5855C11.9221 22.9215 6.7698 25.5777 0.958984 27.2946V33.097C8.48888 31.1614 15.0242 27.8213 20.4574 23.5072ZM127.519 0H121.381V33.5105H127.519V0ZM120.282 0.235471L120.369 0H114.453C111.422 7.29637 106.307 13.8835 99.4473 18.855C92.9862 23.5374 84.9777 26.7883 75.7052 27.8486L75.0732 27.9212V0.0568825H68.9349V33.5105C71.6242 33.5097 73.8709 33.4964 76.0999 33.3311C78.4834 33.1547 80.871 32.8039 83.7965 32.1085C92.6601 29.9994 100.192 25.9728 106.225 20.7026C112.708 15.0378 117.463 7.93681 120.282 0.235471ZM161.241 33.5793H168.739V5.81655H195.369V0H134.443V5.94863H161.241V33.5793Z" fill="#2B2922" />
  <path d="M252.938 51.1438V42.4648H254.321V48.8749L258.66 42.4648H259.999V51.1438H258.623V44.6904L254.265 51.1438H252.938Z" fill="#2B2922" />
  <path d="M243.243 51.1438V42.4648H244.626V48.8749L248.965 42.4648H250.304V51.1438H248.928V44.6904L244.57 51.1438H243.243Z" fill="#2B2922" />
  <path d="M236.491 51.1438V42.4648H241.407V43.7357H237.88V51.1438H236.491Z" fill="#2B2922" />
  <path d="M229.844 51.3263C229.191 51.3263 228.586 51.2126 228.028 50.9853C227.474 50.7539 226.991 50.4336 226.577 50.0244C226.168 49.6153 225.848 49.1359 225.616 48.5862C225.389 48.0365 225.275 47.4414 225.275 46.8008C225.275 46.1561 225.389 45.5589 225.616 45.0093C225.848 44.4596 226.168 43.9802 226.577 43.571C226.991 43.1619 227.474 42.8437 228.028 42.6163C228.586 42.389 229.191 42.2754 229.844 42.2754C230.493 42.2754 231.094 42.3911 231.648 42.6225C232.202 42.854 232.686 43.1763 233.099 43.5896C233.512 44.0029 233.832 44.4844 234.06 45.034C234.291 45.5796 234.407 46.1685 234.407 46.8008C234.407 47.4414 234.291 48.0365 234.06 48.5862C233.832 49.1359 233.512 49.6153 233.099 50.0244C232.686 50.4336 232.202 50.7539 231.648 50.9853C231.094 51.2126 230.493 51.3263 229.844 51.3263ZM229.844 50.012C230.282 50.012 230.689 49.9376 231.065 49.7889C231.446 49.6359 231.776 49.419 232.057 49.1379C232.338 48.8528 232.557 48.5139 232.714 48.1213C232.876 47.7245 232.956 47.2844 232.956 46.8008C232.956 46.152 232.818 45.5878 232.541 45.1084C232.268 44.6249 231.896 44.2509 231.425 43.9864C230.954 43.7219 230.427 43.5896 229.844 43.5896C229.406 43.5896 228.997 43.6661 228.617 43.819C228.241 43.9678 227.91 44.1827 227.625 44.4637C227.344 44.7448 227.123 45.0836 226.962 45.4804C226.805 45.873 226.726 46.3132 226.726 46.8008C226.726 47.4497 226.864 48.0159 227.141 48.4994C227.418 48.9788 227.79 49.3508 228.257 49.6153C228.728 49.8798 229.257 50.012 229.844 50.012Z" fill="#2B2922" />
  <path d="M215.895 51.2926L215.374 50.0155C215.651 49.9287 215.889 49.8233 216.087 49.6993C216.285 49.5754 216.451 49.408 216.583 49.1972C216.719 48.9823 216.825 48.7033 216.899 48.3603C216.978 48.0132 217.033 47.5771 217.066 47.0523C217.099 46.5233 217.116 45.8786 217.116 45.1181V42.4648H223.185V51.1438H221.796V43.7357H218.449V45.0685C218.449 45.9695 218.422 46.7464 218.368 47.3994C218.315 48.0483 218.226 48.598 218.102 49.0484C217.982 49.4948 217.823 49.8647 217.624 50.1581C217.43 50.4474 217.188 50.6809 216.899 50.8586C216.614 51.0363 216.279 51.181 215.895 51.2926Z" fill="#2B2922" />
  <path d="M209.727 51.3263C209.074 51.3263 208.469 51.2126 207.911 50.9853C207.357 50.7539 206.873 50.4336 206.46 50.0244C206.051 49.6153 205.731 49.1359 205.499 48.5862C205.272 48.0365 205.158 47.4414 205.158 46.8008C205.158 46.1561 205.272 45.5589 205.499 45.0093C205.731 44.4596 206.051 43.9802 206.46 43.571C206.873 43.1619 207.357 42.8437 207.911 42.6163C208.469 42.389 209.074 42.2754 209.727 42.2754C210.376 42.2754 210.977 42.3911 211.531 42.6225C212.085 42.854 212.568 43.1763 212.982 43.5896C213.395 44.0029 213.715 44.4844 213.943 45.034C214.174 45.5796 214.29 46.1685 214.29 46.8008C214.29 47.4414 214.174 48.0365 213.943 48.5862C213.715 49.1359 213.395 49.6153 212.982 50.0244C212.568 50.4336 212.085 50.7539 211.531 50.9853C210.977 51.2126 210.376 51.3263 209.727 51.3263ZM209.727 50.012C210.165 50.012 210.572 49.9376 210.948 49.7889C211.328 49.6359 211.659 49.419 211.94 49.1379C212.221 48.8528 212.44 48.5139 212.597 48.1213C212.758 47.7245 212.839 47.2844 212.839 46.8008C212.839 46.152 212.701 45.5878 212.424 45.1084C212.151 44.6249 211.779 44.2509 211.308 43.9864C210.837 43.7219 210.31 43.5896 209.727 43.5896C209.289 43.5896 208.88 43.6661 208.5 43.819C208.123 43.9678 207.793 44.1827 207.508 44.4637C207.227 44.7448 207.006 45.0836 206.844 45.4804C206.687 45.873 206.609 46.3132 206.609 46.8008C206.609 47.4497 206.747 48.0159 207.024 48.4994C207.301 48.9788 207.673 49.3508 208.14 49.6153C208.611 49.8798 209.14 50.012 209.727 50.012Z" fill="#2B2922" />
  <path d="M200.437 51.1438V43.7357H197.994V42.4648H204.268V43.7357H201.825V51.1438H200.437Z" fill="#2B2922" />
  <path d="M190.824 51.1438V42.4648H196.435V43.6923H192.213V46.0356H195.858V47.1949H192.213V49.9039H196.472V51.1438H190.824Z" fill="#2B2922" />
  <path d="M179.12 51.1438V42.4648H180.465L184.005 48.2239L183.466 48.2301L186.875 42.4648H188.196V51.1438H186.838L186.857 44.3122L187.123 44.4052L184.172 49.2716H183.156L180.149 44.4052L180.372 44.3122L180.391 51.1438H179.12Z" fill="#2B2922" />
  <path d="M174.058 51.3263C173.157 51.3263 172.37 51.1403 171.696 50.7683C171.022 50.3964 170.497 49.8715 170.121 49.1937C169.749 48.5118 169.563 47.7162 169.563 46.807C169.563 46.1458 169.673 45.5403 169.892 44.9907C170.115 44.4369 170.427 43.9574 170.828 43.5524C171.233 43.1474 171.71 42.8333 172.26 42.6101C172.81 42.387 173.413 42.2754 174.07 42.2754C174.732 42.2754 175.302 42.358 175.781 42.5234C176.265 42.6887 176.686 42.9242 177.046 43.2301L176.327 44.3645C176.054 44.1124 175.736 43.9244 175.372 43.8004C175.008 43.6764 174.608 43.6144 174.17 43.6144C173.686 43.6144 173.25 43.6888 172.861 43.8376C172.473 43.9864 172.14 44.1992 171.863 44.4761C171.591 44.7489 171.38 45.0816 171.231 45.4742C171.086 45.8627 171.014 46.3028 171.014 46.7946C171.014 47.4641 171.144 48.0365 171.405 48.5118C171.669 48.9871 172.041 49.3508 172.521 49.6029C173.004 49.8509 173.574 49.9748 174.232 49.9748C174.67 49.9748 175.091 49.9108 175.496 49.7827C175.905 49.6504 176.288 49.4376 176.643 49.1441L177.288 50.3158C176.87 50.6423 176.393 50.8923 175.856 51.0659C175.323 51.2395 174.723 51.3263 174.058 51.3263Z" fill="#2B2922" />
  <path d="M163.335 51.3263C162.682 51.3263 162.077 51.2126 161.519 50.9853C160.965 50.7539 160.482 50.4336 160.068 50.0244C159.659 49.6153 159.339 49.1359 159.108 48.5862C158.88 48.0365 158.767 47.4414 158.767 46.8008C158.767 46.1561 158.88 45.5589 159.108 45.0093C159.339 44.4596 159.659 43.9802 160.068 43.571C160.482 43.1619 160.965 42.8437 161.519 42.6163C162.077 42.389 162.682 42.2754 163.335 42.2754C163.984 42.2754 164.586 42.3911 165.139 42.6225C165.693 42.854 166.177 43.1763 166.59 43.5896C167.003 44.0029 167.324 44.4844 167.551 45.034C167.782 45.5796 167.898 46.1685 167.898 46.8008C167.898 47.4414 167.782 48.0365 167.551 48.5862C167.324 49.1359 167.003 49.6153 166.59 50.0244C166.177 50.4336 165.693 50.7539 165.139 50.9853C164.586 51.2126 163.984 51.3263 163.335 51.3263ZM163.335 50.012C163.774 50.012 164.181 49.9376 164.557 49.7889C164.937 49.6359 165.268 49.419 165.549 49.1379C165.83 48.8528 166.049 48.5139 166.206 48.1213C166.367 47.7245 166.447 47.2844 166.447 46.8008C166.447 46.152 166.309 45.5878 166.032 45.1084C165.759 44.6249 165.387 44.2509 164.916 43.9864C164.445 43.7219 163.918 43.5896 163.335 43.5896C162.897 43.5896 162.488 43.6661 162.108 43.819C161.732 43.9678 161.401 44.1827 161.116 44.4637C160.835 44.7448 160.614 45.0836 160.453 45.4804C160.296 45.873 160.217 46.3132 160.217 46.8008C160.217 47.4497 160.356 48.0159 160.633 48.4994C160.909 48.9788 161.281 49.3508 161.748 49.6153C162.22 49.8798 162.749 50.012 163.335 50.012Z" fill="#2B2922" />
  <path d="M156.305 51.1438L152.753 46.5625L155.909 42.4648H157.62L154.446 46.5563L158.097 51.1438H156.305ZM150.931 51.1438V42.4648H152.319V45.9116H153.931V47.1887H152.319V51.1438H150.931Z" fill="#2B2922" />
  <path d="M137.824 51.1439V42.4649H139.207V48.8749L143.546 42.4649H144.885V51.1439H143.509V44.6905L139.151 51.1439H137.824ZM141.358 41.4111C140.899 41.4111 140.496 41.316 140.149 41.1259C139.802 40.9358 139.533 40.6734 139.343 40.3386C139.153 40.0038 139.064 39.6195 139.076 39.1855H140.217C140.201 39.5658 140.296 39.8737 140.502 40.1092C140.713 40.3407 140.998 40.4564 141.358 40.4564C141.717 40.4564 142 40.3407 142.207 40.1092C142.414 39.8737 142.507 39.5658 142.486 39.1855H143.633C143.641 39.6154 143.548 39.9976 143.354 40.3324C143.164 40.6672 142.895 40.9317 142.548 41.1259C142.205 41.316 141.808 41.4111 141.358 41.4111Z" fill="#2B2922" />
  <path d="M131.179 51.3263C130.526 51.3263 129.921 51.2126 129.363 50.9853C128.809 50.7539 128.325 50.4336 127.912 50.0244C127.503 49.6153 127.183 49.1359 126.951 48.5862C126.724 48.0365 126.61 47.4414 126.61 46.8008C126.61 46.1561 126.724 45.5589 126.951 45.0093C127.183 44.4596 127.503 43.9802 127.912 43.571C128.325 43.1619 128.809 42.8437 129.363 42.6163C129.921 42.389 130.526 42.2754 131.179 42.2754C131.828 42.2754 132.429 42.3911 132.983 42.6225C133.537 42.854 134.021 43.1763 134.434 43.5896C134.847 44.0029 135.167 44.4844 135.395 45.034C135.626 45.5796 135.742 46.1685 135.742 46.8008C135.742 47.4414 135.626 48.0365 135.395 48.5862C135.167 49.1359 134.847 49.6153 134.434 50.0244C134.021 50.4336 133.537 50.7539 132.983 50.9853C132.429 51.2126 131.828 51.3263 131.179 51.3263ZM131.179 50.012C131.617 50.012 132.024 49.9376 132.4 49.7889C132.781 49.6359 133.111 49.419 133.392 49.1379C133.673 48.8528 133.892 48.5139 134.049 48.1213C134.211 47.7245 134.291 47.2844 134.291 46.8008C134.291 46.152 134.153 45.5878 133.876 45.1084C133.603 44.6249 133.231 44.2509 132.76 43.9864C132.289 43.7219 131.762 43.5896 131.179 43.5896C130.741 43.5896 130.332 43.6661 129.952 43.819C129.576 43.9678 129.245 44.1827 128.96 44.4637C128.679 44.7448 128.458 45.0836 128.297 45.4804C128.14 45.873 128.061 46.3132 128.061 46.8008C128.061 47.4497 128.199 48.0159 128.476 48.4994C128.753 48.9788 129.125 49.3508 129.592 49.6153C130.063 49.8798 130.592 50.012 131.179 50.012Z" fill="#2B2922" />
  <path d="M117.539 51.1438V42.4648H118.928V45.9116H123.131V42.4648H124.519V51.1438H123.131V47.1887H118.928V51.1438H117.539Z" fill="#2B2922" />
  <path d="M111.878 51.1438V43.7357H109.436V42.4648H115.709V43.7357H113.267V51.1438H111.878Z" fill="#2B2922" />
  <path d="M100.819 51.1438L104.192 42.4648H105.698L109.157 51.1438H107.589L106.789 49.0732H103.113L102.344 51.1438H100.819ZM103.473 47.8768H106.417L104.917 44.0952L103.473 47.8768Z" fill="#2B2922" />
  <path d="M93.9629 51.1438V42.4648H97.1059C97.7217 42.4648 98.2652 42.5723 98.7363 42.7872C99.2116 42.998 99.5835 43.3038 99.8522 43.7047C100.121 44.1014 100.255 44.5788 100.255 45.1367C100.255 45.7112 100.131 46.1968 99.8832 46.5935C99.6352 46.9862 99.2736 47.2858 98.7983 47.4924C98.3271 47.6949 97.7527 47.7962 97.0749 47.7962H95.3515V51.1438H93.9629ZM95.3515 46.6059H97.0935C97.6556 46.6059 98.0916 46.4881 98.4015 46.2526C98.7115 46.0129 98.8665 45.6512 98.8665 45.1677C98.8665 44.6883 98.7074 44.3205 98.3891 44.0642C98.0709 43.808 97.6432 43.6799 97.1059 43.6799H95.3515V46.6059Z" fill="#2B2922" />
  <path d="M83.9961 51.1438L87.3685 42.4648H88.8749L92.3341 51.1438H90.7657L89.966 49.0732H86.2898L85.5211 51.1438H83.9961ZM86.6494 47.8768H89.594L88.0938 44.0952L86.6494 47.8768Z" fill="#2B2922" />
  <path d="M75.3838 51.1438V42.4648H82.3641V51.1438H80.9755V43.7357H76.7724V51.1438H75.3838Z" fill="#2B2922" />
  <path d="M65.7744 51.1438V42.4648H72.7548V51.1438H71.3661V43.7357H67.163V51.1438H65.7744Z" fill="#2B2922" />
  <path d="M55.8066 51.1438L59.179 42.4648H60.6854L64.1446 51.1438H62.5762L61.7765 49.0732H58.1004L57.3317 51.1438H55.8066ZM58.4599 47.8768H61.4045L59.9043 44.0952L58.4599 47.8768Z" fill="#2B2922" />
  <path d="M44.1201 51.1438L46.7672 47.4738C46.0646 47.3498 45.517 47.0791 45.1244 46.6617C44.7359 46.2443 44.5417 45.6988 44.5417 45.0251C44.5417 44.5044 44.6677 44.0539 44.9198 43.6737C45.1719 43.2893 45.5273 42.9918 45.9861 42.781C46.4448 42.5702 46.9883 42.4648 47.6165 42.4648H50.7719V51.1438H49.3833V47.6412H48.2054L45.7443 51.1438H44.1201ZM47.6289 46.4881H49.3833V43.6427H47.7157C47.1619 43.6427 46.7279 43.7625 46.4138 44.0023C46.0997 44.2378 45.9427 44.5808 45.9427 45.0313C45.9427 45.4901 46.0832 45.8476 46.3642 46.1038C46.6453 46.36 47.0668 46.4881 47.6289 46.4881Z" fill="#2B2922" />
  <path d="M35.0928 51.1438V42.4648H36.4752V48.8749L40.8147 42.4648H42.1537V51.1438H40.7775V44.6904L36.4194 51.1438H35.0928Z" fill="#2B2922" />
  <path d="M30.4836 51.1438V43.7357H27.0865V45.0685C27.0865 46.1224 27.0369 47.0089 26.9377 47.728C26.8385 48.4471 26.6835 49.036 26.4727 49.4948C26.262 49.9494 25.9851 50.3027 25.642 50.5548C25.3031 50.8069 24.8899 50.9909 24.4022 51.1066L23.9062 49.9845C24.2782 49.8977 24.584 49.7655 24.8237 49.5878C25.0634 49.41 25.2494 49.1455 25.3817 48.7943C25.5181 48.4388 25.6131 47.9615 25.6668 47.3622C25.7247 46.7588 25.7536 45.9943 25.7536 45.0685V42.4648H31.8723V51.1438H30.4836ZM23.9062 53.3507V49.9845L24.8609 50.0341L25.3755 49.8667H33.2547V53.3507H31.9467V51.1438H25.2143V53.3507H23.9062Z" fill="#2B2922" />
  <path d="M17.1799 51.2926L16.6344 50.0155C17.1138 49.8998 17.5457 49.7283 17.93 49.501C18.3185 49.2737 18.6719 48.972 18.9901 48.5959C19.3083 48.2198 19.6018 47.7549 19.8704 47.2011L22.1827 42.4648H23.7883L21.166 47.635C20.8767 48.2053 20.5854 48.7013 20.2919 49.1228C19.9985 49.5402 19.6927 49.8936 19.3745 50.1829C19.0562 50.4722 18.7153 50.7057 18.3516 50.8834C17.992 51.0611 17.6015 51.1975 17.1799 51.2926ZM19.6782 48.4161L16.374 42.4648H18.0664L20.6081 47.1887L19.6782 48.4161Z" fill="#2B2922" />
  <path d="M11.2052 51.1438V43.7357H8.7627V42.4648H15.0363V43.7357H12.5938V51.1438H11.2052Z" fill="#2B2922" />
  <path d="M4.49444 51.3263C3.59349 51.3263 2.80619 51.1403 2.13254 50.7683C1.45889 50.3964 0.934018 49.8715 0.557931 49.1937C0.185977 48.5118 0 47.7162 0 46.807C0 46.1458 0.10952 45.5403 0.328559 44.9907C0.551732 44.4369 0.86376 43.9574 1.26464 43.5524C1.66966 43.1474 2.147 42.8333 2.69667 42.6101C3.24633 42.387 3.84972 42.2754 4.50684 42.2754C5.16809 42.2754 5.73842 42.358 6.21783 42.5234C6.70137 42.6887 7.12292 42.9242 7.48247 43.2301L6.76336 44.3645C6.4906 44.1124 6.17237 43.9244 5.80868 43.8004C5.44499 43.6764 5.04411 43.6144 4.60603 43.6144C4.12249 43.6144 3.68648 43.6888 3.29799 43.8376C2.90951 43.9864 2.57681 44.1992 2.29992 44.4761C2.02715 44.7489 1.81637 45.0816 1.66759 45.4742C1.52294 45.8627 1.45062 46.3028 1.45062 46.7946C1.45062 47.4641 1.5808 48.0365 1.84117 48.5118C2.10567 48.9871 2.47763 49.3508 2.95703 49.6029C3.44057 49.8509 4.0109 49.9748 4.66802 49.9748C5.1061 49.9748 5.52765 49.9108 5.93266 49.7827C6.34181 49.6504 6.7241 49.4376 7.07952 49.1441L7.72424 50.3158C7.30683 50.6423 6.82949 50.8923 6.29222 51.0659C5.75909 51.2395 5.15983 51.3263 4.49444 51.3263Z" fill="#2B2922" />
</svg>
