<svg width="260" height="54" viewBox="0 0 260 54" fill="none" xmlns="http://www.w3.org/2000/svg"><path d="M208.997 33.58h50.754a49.153 49.153 0 0 1-1.718-5.835h-49.602v-8.01h26.206V13.9h-26.206V5.835h49.759A49.049 49.049 0 0 1 259.999 0h-57.706v33.58h6.704ZM20.457 23.506A49.676 49.676 0 0 0 34.276 6.263l.152-.314h21.534V33.51h6.137V0H31a42.34 42.34 0 0 1-2.762 5.949h.013l-.478.81c-2.857 4.849-6.715 9.232-11.453 12.826-4.397 3.337-9.55 5.993-15.36 7.71v5.802c7.53-1.936 14.065-5.276 19.498-9.59ZM127.52 0h-6.138v33.51h6.138V0Zm-7.237.235L120.37 0h-5.916c-3.031 7.296-8.146 13.883-15.006 18.855-6.46 4.682-14.47 7.933-23.742 8.994l-.632.072V.057h-6.138V33.51c2.69 0 4.936-.014 7.165-.179 2.383-.176 4.771-.527 7.697-1.223 8.863-2.109 16.395-6.135 22.428-11.405A50.018 50.018 0 0 0 120.282.235Zm40.959 33.344h7.498V5.817h26.63V0h-60.926v5.949h26.798v27.63Zm91.696 17.565v-8.68h1.383v6.41l4.339-6.41h1.339v8.68h-1.376V44.69l-4.358 6.454h-1.327Zm-9.695 0v-8.68h1.383v6.41l4.339-6.41h1.339v8.68h-1.376V44.69l-4.358 6.454h-1.327Zm-6.752 0v-8.68h4.916v1.272h-3.527v7.408h-1.389Zm-6.647.182a4.767 4.767 0 0 1-1.816-.34 4.518 4.518 0 0 1-1.451-.962 4.469 4.469 0 0 1-.961-1.438 4.632 4.632 0 0 1-.341-1.785c0-.645.114-1.242.341-1.792a4.47 4.47 0 0 1 .961-1.438c.414-.41.897-.727 1.451-.955a4.767 4.767 0 0 1 1.816-.34c.649 0 1.25.115 1.804.346a4.414 4.414 0 0 1 2.412 2.411c.231.547.347 1.136.347 1.768 0 .64-.116 1.235-.347 1.785a4.343 4.343 0 0 1-.961 1.438c-.413.41-.897.73-1.451.961a4.705 4.705 0 0 1-1.804.341Zm0-1.314a3.29 3.29 0 0 0 1.221-.223 2.93 2.93 0 0 0 .992-.651c.281-.285.5-.624.657-1.017.162-.397.242-.837.242-1.32 0-.649-.138-1.213-.415-1.693a2.887 2.887 0 0 0-1.116-1.122 3.173 3.173 0 0 0-1.581-.396c-.438 0-.847.076-1.227.229a2.938 2.938 0 0 0-.992.645 3.03 3.03 0 0 0-.663 1.016 3.53 3.53 0 0 0-.236 1.32c0 .65.138 1.216.415 1.7.277.479.649.85 1.116 1.115.471.265 1 .397 1.587.397Zm-13.949 1.281-.521-1.277c.277-.087.515-.193.713-.317.198-.124.364-.291.496-.502.136-.215.242-.494.316-.837a8.44 8.44 0 0 0 .167-1.308c.033-.529.05-1.173.05-1.934v-2.653h6.069v8.679h-1.389v-7.408h-3.347v1.333c0 .9-.027 1.677-.081 2.33a9.1 9.1 0 0 1-.266 1.65c-.12.446-.279.816-.478 1.11a2.36 2.36 0 0 1-.725.7 4 4 0 0 1-1.004.434Zm-6.168.033a4.767 4.767 0 0 1-1.816-.34 4.507 4.507 0 0 1-1.451-.962 4.469 4.469 0 0 1-.961-1.438 4.632 4.632 0 0 1-.341-1.785c0-.645.114-1.242.341-1.792a4.47 4.47 0 0 1 .961-1.438c.413-.41.897-.727 1.451-.955a4.767 4.767 0 0 1 1.816-.34c.649 0 1.25.115 1.804.346a4.414 4.414 0 0 1 2.412 2.411c.231.547.347 1.136.347 1.768 0 .64-.116 1.235-.347 1.785a4.343 4.343 0 0 1-.961 1.438c-.414.41-.897.73-1.451.961a4.705 4.705 0 0 1-1.804.341Zm0-1.314a3.29 3.29 0 0 0 1.221-.223c.38-.153.711-.37.992-.651.281-.285.5-.624.657-1.017.161-.397.242-.837.242-1.32 0-.649-.138-1.213-.415-1.693a2.887 2.887 0 0 0-1.116-1.122 3.173 3.173 0 0 0-1.581-.396c-.438 0-.847.076-1.227.229a2.928 2.928 0 0 0-.992.645 3.04 3.04 0 0 0-.664 1.016 3.53 3.53 0 0 0-.235 1.32c0 .65.138 1.216.415 1.7.277.479.649.85 1.116 1.115.471.265 1 .397 1.587.397Zm-9.29 1.132v-7.408h-2.443v-1.271h6.274v1.27h-2.443v7.409h-1.388Zm-9.613 0v-8.68h5.611v1.228h-4.222v2.344h3.645v1.159h-3.645v2.709h4.259v1.24h-5.648Zm-11.704 0v-8.68h1.345l3.54 5.76-.539.006 3.409-5.765h1.321v8.679h-1.358l.019-6.832.266.093-2.951 4.867h-1.016l-3.007-4.867.223-.093.019 6.832h-1.271Zm-5.062.182c-.901 0-1.688-.186-2.362-.558a3.952 3.952 0 0 1-1.575-1.574c-.372-.682-.558-1.478-.558-2.387 0-.661.11-1.267.329-1.816a4.304 4.304 0 0 1 .936-1.439 4.27 4.27 0 0 1 1.432-.942 4.77 4.77 0 0 1 1.81-.335c.662 0 1.232.083 1.711.248.484.166.905.401 1.265.707l-.719 1.135a2.648 2.648 0 0 0-.955-.565 3.705 3.705 0 0 0-1.202-.186c-.484 0-.92.075-1.309.224a2.82 2.82 0 0 0-.998.638 2.8 2.8 0 0 0-.632.998 3.757 3.757 0 0 0-.217 1.32c0 .67.13 1.242.391 1.718.264.475.636.839 1.116 1.09.483.249 1.053.373 1.711.373.438 0 .859-.064 1.264-.192a3.468 3.468 0 0 0 1.147-.639l.645 1.172a4.603 4.603 0 0 1-1.432.75 5.793 5.793 0 0 1-1.798.26Zm-10.723 0a4.767 4.767 0 0 1-1.816-.34 4.518 4.518 0 0 1-1.451-.962 4.45 4.45 0 0 1-1.301-3.223c0-.645.113-1.242.341-1.792.231-.55.551-1.029.96-1.438.414-.41.897-.727 1.451-.955a4.767 4.767 0 0 1 1.816-.34c.649 0 1.251.115 1.804.346a4.46 4.46 0 0 1 1.451.968c.413.413.734.894.961 1.444.231.546.347 1.135.347 1.767 0 .64-.116 1.235-.347 1.785a4.328 4.328 0 0 1-.961 1.438c-.413.41-.897.73-1.451.961a4.702 4.702 0 0 1-1.804.341Zm0-1.314c.439 0 .846-.074 1.222-.223.38-.153.711-.37.992-.651.281-.285.5-.624.657-1.017.161-.397.241-.837.241-1.32 0-.649-.138-1.213-.415-1.693a2.887 2.887 0 0 0-1.116-1.122 3.173 3.173 0 0 0-1.581-.396c-.438 0-.847.076-1.227.229a2.938 2.938 0 0 0-.992.645 3.03 3.03 0 0 0-.663 1.016 3.53 3.53 0 0 0-.236 1.32c0 .65.139 1.216.416 1.7.276.479.648.85 1.115 1.115a3.19 3.19 0 0 0 1.587.397Zm-7.03 1.132-3.552-4.581 3.156-4.098h1.711l-3.174 4.091 3.651 4.588h-1.792Zm-5.374 0v-8.68h1.388v3.448h1.612v1.277h-1.612v3.955h-1.388Zm-13.107 0v-8.68h1.383v6.41l4.339-6.41h1.339v8.68h-1.376V44.69l-4.358 6.453h-1.327Zm3.534-9.733c-.459 0-.862-.095-1.209-.285a2.025 2.025 0 0 1-.806-.787 2.17 2.17 0 0 1-.267-1.154h1.141c-.016.38.079.689.285.924.211.232.496.347.856.347.359 0 .642-.115.849-.347.207-.235.3-.543.279-.924h1.147a2.16 2.16 0 0 1-.279 1.147c-.19.335-.459.6-.806.794-.343.19-.74.285-1.19.285Zm-10.179 9.915a4.767 4.767 0 0 1-1.816-.34 4.507 4.507 0 0 1-1.451-.962 4.469 4.469 0 0 1-.961-1.438 4.632 4.632 0 0 1-.341-1.785c0-.645.114-1.242.341-1.792a4.47 4.47 0 0 1 .961-1.438c.413-.41.897-.727 1.451-.955a4.767 4.767 0 0 1 1.816-.34c.649 0 1.25.115 1.804.346a4.414 4.414 0 0 1 2.412 2.411c.231.547.347 1.136.347 1.768 0 .64-.116 1.235-.347 1.785a4.343 4.343 0 0 1-.961 1.438c-.413.41-.897.73-1.451.961a4.705 4.705 0 0 1-1.804.341Zm0-1.314a3.29 3.29 0 0 0 1.221-.223 2.93 2.93 0 0 0 .992-.651c.281-.285.5-.624.657-1.017.162-.397.242-.837.242-1.32 0-.649-.138-1.213-.415-1.693a2.887 2.887 0 0 0-1.116-1.122 3.173 3.173 0 0 0-1.581-.396c-.438 0-.847.076-1.227.229a2.938 2.938 0 0 0-.992.645 3.03 3.03 0 0 0-.663 1.016 3.53 3.53 0 0 0-.236 1.32c0 .65.138 1.216.415 1.7.277.479.649.85 1.116 1.115.471.265 1 .397 1.587.397Zm-13.64 1.132v-8.68h1.389v3.448h4.203v-3.447h1.388v8.679h-1.388v-3.955h-4.203v3.955h-1.389Zm-5.661 0v-7.408h-2.442v-1.271h6.273v1.27h-2.442v7.409h-1.389Zm-11.059 0 3.373-8.68h1.506l3.459 8.68h-1.568l-.8-2.07h-3.676l-.769 2.07h-1.525Zm2.654-3.267h2.944l-1.5-3.782-1.444 3.782Zm-9.51 3.267v-8.68h3.143c.616 0 1.16.108 1.63.323.476.211.847.517 1.116.918.269.396.403.874.403 1.432 0 .574-.124 1.06-.372 1.456-.248.393-.61.693-1.085.9-.47.202-1.045.303-1.723.303H95.35v3.348h-1.388Zm1.389-4.538h1.742c.562 0 .998-.118 1.308-.353.31-.24.465-.602.465-1.085 0-.48-.16-.847-.478-1.104-.318-.256-.746-.384-1.283-.384h-1.754v2.926Zm-11.356 4.538 3.373-8.68h1.506l3.46 8.68h-1.57l-.799-2.07H86.29l-.769 2.07h-1.525Zm2.653-3.267h2.945l-1.5-3.782-1.445 3.782Zm-11.265 3.267v-8.68h6.98v8.68h-1.389v-7.408h-4.203v7.408h-1.388Zm-9.61 0v-8.68h6.98v8.68h-1.388v-7.408h-4.203v7.408h-1.389Zm-9.967 0 3.372-8.68h1.506l3.46 8.68h-1.569l-.8-2.07H58.1l-.768 2.07h-1.525Zm2.653-3.267h2.944l-1.5-3.782-1.444 3.782Zm-14.34 3.267 2.647-3.67c-.702-.124-1.25-.395-1.643-.812-.388-.418-.582-.963-.582-1.637 0-.52.126-.971.378-1.351a2.474 2.474 0 0 1 1.066-.893c.459-.21 1.002-.316 1.63-.316h3.156v8.679h-1.389V47.64h-1.178l-2.46 3.503H44.12Zm3.509-4.656h1.754v-2.845h-1.667c-.554 0-.988.12-1.302.36-.314.235-.471.578-.471 1.028 0 .46.14.817.421 1.073.281.256.703.384 1.265.384Zm-12.536 4.656v-8.68h1.382v6.41l4.34-6.41h1.339v8.68h-1.377V44.69l-4.358 6.454h-1.326Zm-4.609 0v-7.408h-3.398v1.333c0 1.053-.05 1.94-.148 2.659-.1.72-.255 1.308-.465 1.767-.211.454-.488.808-.831 1.06a3.344 3.344 0 0 1-1.24.552l-.496-1.123c.372-.086.678-.218.918-.396.24-.178.425-.443.558-.794.136-.355.231-.832.285-1.432a24.81 24.81 0 0 0 .087-2.294v-2.603h6.118v8.679h-1.388Zm-6.578 2.207v-3.367l.955.05.514-.167h7.88v3.484h-1.308v-2.207h-6.733v2.207h-1.308Zm-6.726-2.058-.546-1.277a4.69 4.69 0 0 0 1.296-.515 4.106 4.106 0 0 0 1.06-.905c.318-.376.612-.841.88-1.395l2.313-4.736h1.605l-2.622 5.17c-.29.57-.58 1.066-.874 1.488-.294.417-.6.77-.918 1.06-.318.29-.659.523-1.022.7-.36.178-.75.314-1.172.41Zm2.498-2.877-3.304-5.951h1.692l2.542 4.724-.93 1.227Zm-8.473 2.728v-7.408H8.763v-1.271h6.273v1.27h-2.442v7.409h-1.389Zm-6.711.182c-.9 0-1.688-.186-2.361-.558a3.954 3.954 0 0 1-1.575-1.574C.186 48.512 0 47.716 0 46.807c0-.661.11-1.267.329-1.816a4.309 4.309 0 0 1 .936-1.439 4.27 4.27 0 0 1 1.432-.942 4.77 4.77 0 0 1 1.81-.335c.661 0 1.231.083 1.71.248.484.166.906.401 1.265.707l-.719 1.135a2.647 2.647 0 0 0-.954-.565 3.707 3.707 0 0 0-1.203-.186c-.484 0-.92.075-1.308.224a2.815 2.815 0 0 0-.998.638 2.786 2.786 0 0 0-.632.998 3.765 3.765 0 0 0-.217 1.32c0 .67.13 1.242.39 1.718.265.475.637.839 1.116 1.09.484.249 1.054.373 1.711.373.438 0 .86-.064 1.265-.192a3.47 3.47 0 0 0 1.147-.639l.644 1.172a4.594 4.594 0 0 1-1.432.75 5.79 5.79 0 0 1-1.798.26Z" fill="#2B2922"/></svg>